# Blender v3.0.1 OBJ File: 'tree_debris_01.blend'
# www.blender.org
mtllib tree_debris_01.mtl
o tree_debris_01
v 0.101151 0.024945 0.022785
v -0.199215 0.052300 0.016069
v -0.303489 0.052847 -0.004612
v -0.120838 0.012118 -0.018872
v -0.198301 0.032212 0.029164
v -0.488509 0.054624 0.008075
v 0.416098 0.052812 -0.012411
v -0.151819 0.033117 -0.027472
v 0.210158 0.039214 -0.028093
v 0.149970 0.030236 -0.025864
v 0.481365 -0.010575 0.009907
v 0.051036 0.034163 0.026159
v 0.381508 0.002591 0.012284
v 0.458246 0.020243 -0.028392
v -0.482504 0.034941 0.016629
v -0.341916 0.051815 0.014208
v -0.355330 0.020173 0.026007
v 0.442194 -0.008593 -0.000605
v -0.444209 0.020047 -0.019054
v -0.446266 0.013340 -0.000638
v -0.464655 0.045036 -0.019566
v -0.204433 0.034605 -0.024179
v -0.359906 0.005745 -0.013025
v -0.346226 0.026448 -0.025076
v 0.428662 0.027795 0.025962
v 0.486440 -0.015082 -0.002305
v 0.197136 0.057224 -0.012646
v 0.084744 0.060560 0.000633
v 0.152920 0.061502 0.000189
v 0.139492 0.042681 -0.022776
v -0.083947 0.023934 -0.025704
v 0.009424 0.039179 -0.023505
v 0.122129 0.056316 0.013324
v 0.123929 0.042018 0.021903
v 0.219489 0.027150 0.026412
v -0.448677 0.059718 0.002084
v -0.452817 0.054893 0.011259
v -0.257630 0.029131 0.028954
v 0.194380 0.004499 -0.001587
v -0.222194 0.056226 0.004599
v -0.037298 0.054531 -0.013508
v 0.399368 0.057815 -0.001276
v 0.433734 0.050105 0.012171
v -0.439660 0.016757 0.019607
v -0.397159 0.051991 0.013521
v -0.449205 0.032909 0.020320
v -0.387037 0.056427 0.003174
v 0.296530 0.030975 0.026211
v -0.285095 0.052680 0.013188
v 0.471840 0.047879 -0.015652
v 0.472269 0.047709 0.012505
v 0.490365 0.023495 0.007238
v 0.219280 0.062277 -0.000359
v 0.301159 0.003484 -0.001452
v -0.382845 -0.000374 -0.000329
v -0.259392 0.000126 -0.001462
v -0.285893 0.007135 -0.015324
v -0.259545 0.006273 -0.023987
v -0.481642 0.036516 -0.018680
v -0.464318 0.012996 -0.002420
v -0.300656 0.005597 0.014064
v -0.259752 0.004576 0.022355
v 0.493178 0.023408 -0.008706
v 0.035567 0.056141 -0.010203
v 0.040080 0.024683 -0.023659
v 0.030595 0.060741 0.002115
v 0.015138 0.042189 0.023496
v -0.029631 0.008149 -0.014662
v 0.026225 0.008214 -0.011733
v -0.018393 0.046008 -0.028947
v -0.029403 0.028676 -0.028271
v -0.449583 0.037781 -0.017090
v -0.451707 0.055711 -0.007964
v -0.013891 0.057271 -0.016225
v -0.428056 0.002423 -0.013464
v -0.471328 0.021281 -0.013143
v -0.063396 0.033307 0.028015
v -0.031082 0.027729 0.030217
v 0.010417 0.056738 0.014256
v -0.466007 0.017634 0.011664
v 0.066121 0.008353 0.011324
v -0.173563 0.003758 -0.001262
v -0.069729 0.003143 -0.010490
v 0.385993 0.023946 0.023648
v -0.185733 0.021367 -0.025777
v -0.230230 0.018380 -0.026594
v 0.297147 0.007948 0.012160
v -0.433565 -0.002713 0.000950
v 0.400464 0.001821 -0.014221
v 0.367586 0.038867 -0.024110
v 0.368612 0.024886 -0.024372
v 0.237235 0.025286 -0.025739
v 0.281610 0.033747 -0.028105
v 0.212512 0.037500 0.026850
v 0.155999 0.029592 0.026080
v 0.482131 -0.010232 -0.013637
v -0.019964 0.055535 0.023013
v 0.064888 0.034501 -0.024870
v -0.294544 0.021951 -0.024020
v -0.463648 0.043360 0.020378
v 0.229435 0.010493 -0.014593
v 0.462000 0.013183 0.023549
v -0.161872 0.058735 0.004174
v -0.354283 0.005077 0.013592
v 0.269960 0.062624 -0.000586
v -0.025296 0.002356 -0.001861
v 0.101927 0.003073 -0.007593
v -0.163954 0.028298 0.031219
v -0.045293 0.055305 0.015099
v -0.142060 0.054232 -0.009885
v -0.077173 0.055890 -0.007887
v -0.490476 0.059923 -0.003483
v -0.101569 0.004212 0.000156
v 0.353458 0.038017 0.022677
v 0.348127 0.055342 0.011844
v 0.104336 0.028464 -0.023542
v -0.017800 0.042421 0.031791
v 0.338223 0.056689 -0.012509
v -0.220673 0.018298 0.027901
v -0.113321 0.024285 0.027705
v 0.317147 0.038944 0.024957
v 0.323426 0.040192 -0.026623
v -0.007189 0.061587 0.002109
v -0.041520 0.006319 0.011774
v -0.114085 0.031550 -0.026187
v 0.071553 0.003937 -0.001145
v 0.100229 0.004171 0.008658
v -0.105005 0.013622 0.020227
v -0.415788 0.025661 0.028308
v -0.384776 0.052404 -0.007125
v -0.063862 0.037392 -0.024645
v -0.160780 0.008178 -0.013472
v 0.300623 0.008878 -0.014823
v -0.415972 0.002756 0.014548
v -0.067333 -0.002981 0.000381
v 0.391629 0.054482 0.009938
v -0.277601 0.020084 0.027890
v -0.344096 0.056362 0.003322
v 0.131761 0.004731 0.000109
v -0.394357 0.029017 -0.025961
v -0.429718 0.028256 -0.024858
v 0.422005 0.031126 -0.027341
v -0.219685 0.007267 0.016415
v -0.279169 0.041599 -0.014635
v -0.292955 0.056145 0.004639
v -0.112909 0.040035 0.025803
v -0.116120 0.060356 0.003856
v -0.054811 0.060409 0.003199
v -0.286924 0.029132 -0.024416
v 0.348440 0.060371 -0.000583
v -0.311824 0.001917 -0.000698
v 0.383813 -0.002135 -0.001552
v 0.025091 0.003100 -0.001437
v 0.206813 0.032580 -0.028581
v -0.216831 0.053163 -0.006310
v -0.381436 0.029054 0.028370
v 0.481976 0.051250 -0.002112
v -0.071576 0.005246 0.010371
v 0.193290 0.009731 0.012293
v 0.258345 0.004628 -0.001113
v 0.184875 0.056894 0.012271
v 0.024912 0.024228 0.024507
v 0.135392 0.010084 -0.011590
v -0.487101 0.031084 -0.001479
v 0.266232 0.058745 -0.012534
v 0.063458 0.055866 0.012483
v 0.263979 0.057839 0.012088
v -0.152834 0.007397 0.012125
v -0.317961 0.027895 0.028800
v 0.110043 0.056924 -0.011940
v 0.012995 0.007165 0.009978
v -0.221260 0.008093 -0.016479
v -0.105381 0.056037 0.014561
vt 0.661783 0.711611
vt 0.677646 0.711303
vt 0.680579 0.707041
vt 0.658049 0.705221
vt 0.710768 0.713262
vt 0.720930 0.717550
vt 0.730761 0.711845
vt 0.617828 0.717737
vt 0.618739 0.710465
vt 0.620097 0.711923
vt 0.755360 0.726516
vt 0.747629 0.720681
vt 0.743177 0.726177
vt 0.749889 0.728135
vt 0.865540 0.729260
vt 0.831043 0.726664
vt 0.847728 0.733943
vt 0.879629 0.725546
vt 0.869712 0.734731
vt 0.879006 0.729804
vt 0.898925 0.734904
vt 0.897823 0.728207
vt 0.908253 0.724381
vt 0.910686 0.734986
vt 0.883990 0.719415
vt 0.858164 0.719366
vt 0.859487 0.717910
vt 0.884783 0.717883
vt 0.637362 0.702790
vt 0.635768 0.701292
vt 0.631588 0.705861
vt 0.632070 0.707762
vt 0.650971 0.712308
vt 0.670389 0.713241
vt 0.662577 0.719863
vt 0.721079 0.710090
vt 0.714848 0.708487
vt 0.736750 0.710050
vt 0.886018 0.735421
vt 0.888306 0.736454
vt 0.872680 0.736205
vt 0.872752 0.734826
vt 0.623800 0.707661
vt 0.625326 0.714952
vt 0.704833 0.716979
vt 0.884887 0.726131
vt 0.914664 0.717420
vt 0.902695 0.717102
vt 0.916304 0.715999
vt 0.659750 0.705386
vt 0.672747 0.705124
vt 0.676119 0.706619
vt 0.659092 0.710085
vt 0.803838 0.730569
vt 0.813145 0.732637
vt 0.792420 0.730992
vt 0.777528 0.728526
vt 0.769913 0.722687
vt 0.762446 0.727795
vt 0.814718 0.723268
vt 0.826487 0.717805
vt 0.834088 0.723771
vt 0.916726 0.727895
vt 0.917569 0.727816
vt 0.913614 0.736092
vt 0.889787 0.719301
vt 0.914915 0.717251
vt 0.698980 0.723536
vt 0.674277 0.720724
vt 0.677404 0.722035
vt 0.808845 0.716487
vt 0.812882 0.722775
vt 0.830196 0.724579
vt 0.837522 0.718447
vt 0.641028 0.703445
vt 0.640602 0.710588
vt 0.633506 0.707268
vt 0.895759 0.728475
vt 0.893529 0.735132
vt 0.628769 0.718556
vt 0.629916 0.720009
vt 0.617196 0.719144
vt 0.620354 0.712024
vt 0.804695 0.726301
vt 0.822999 0.731974
vt 0.831764 0.726802
vt 0.863657 0.729363
vt 0.847053 0.733856
vt 0.857507 0.726514
vt 0.800193 0.730236
vt 0.700682 0.722566
vt 0.723399 0.724381
vt 0.679878 0.721272
vt 0.910595 0.734691
vt 0.787784 0.714823
vt 0.789535 0.713423
vt 0.798796 0.713731
vt 0.798250 0.714215
vt 0.826738 0.732050
vt 0.833327 0.734198
vt 0.859208 0.719419
vt 0.649535 0.718960
vt 0.629028 0.718593
vt 0.648786 0.720258
vt 0.679832 0.713629
vt 0.688633 0.707237
vt 0.688793 0.705591
vt 0.745861 0.711100
vt 0.735533 0.713052
vt 0.746498 0.710236
vt 0.645786 0.718811
vt 0.661824 0.721078
vt 0.700731 0.708804
vt 0.688554 0.707208
vt 0.769836 0.728429
vt 0.785983 0.729242
vt 0.775876 0.729938
vt 0.848801 0.735314
vt 0.758274 0.718644
vt 0.761293 0.724170
vt 0.786885 0.722344
vt 0.779526 0.718855
vt 0.764404 0.729447
vt 0.732799 0.716224
vt 0.747847 0.720017
vt 0.700168 0.712216
vt 0.757771 0.718931
vt 0.755019 0.712048
vt 0.798101 0.720717
vt 0.782637 0.722529
vt 0.630220 0.712029
vt 0.625447 0.706911
vt 0.771533 0.724228
vt 0.760597 0.727587
vt 0.761455 0.723705
vt 0.774914 0.718965
vt 0.771617 0.713380
vt 0.775402 0.712224
vt 0.747366 0.708565
vt 0.625672 0.714880
vt 0.775626 0.713688
vt 0.799032 0.721314
vt 0.752868 0.726923
vt 0.688706 0.714844
vt 0.682795 0.711654
vt 0.907003 0.725901
vt 0.630132 0.713081
vt 0.697280 0.711508
vt 0.732566 0.721002
vt 0.734598 0.725897
vt 0.717345 0.725490
vt 0.758680 0.712503
vt 0.626068 0.705452
vt 0.760051 0.711028
vt 0.651173 0.702985
vt 0.807830 0.714892
vt 0.839560 0.723020
vt 0.852956 0.726449
vt 0.706010 0.722908
vt 0.717248 0.716467
vt 0.732426 0.717838
vt 0.731221 0.726926
vt 0.874690 0.729733
vt 0.741766 0.716156
vt 0.706721 0.716976
vt 0.647066 0.711440
vt 0.700229 0.708633
vt 0.718681 0.709934
vt 0.846399 0.717425
vt 0.826908 0.716093
vt 0.809439 0.726383
vt 0.636348 0.710483
vt 0.681932 0.717720
vn -0.0124 0.0357 -0.9993
vn -0.0373 -0.2844 -0.9580
vn -0.1136 -0.8001 -0.5890
vn 0.0123 -0.7480 -0.6636
vn -0.0012 -0.3249 -0.9457
vn 0.0228 0.2039 -0.9787
vn -0.0071 -0.6948 -0.7192
vn -0.6771 0.4717 0.5648
vn -0.8746 -0.4836 -0.0334
vn -0.5990 -0.2577 0.7582
vn -0.1476 0.7438 -0.6519
vn -0.0373 0.4144 -0.9093
vn -0.0160 0.8257 -0.5639
vn -0.0281 0.9994 0.0195
vn 0.0376 0.3289 -0.9436
vn -0.0139 0.3730 -0.9277
vn 0.0050 0.8212 -0.5706
vn -0.0195 -0.2289 -0.9732
vn 0.0395 0.8163 -0.5763
vn 0.0232 0.3297 -0.9438
vn 0.0544 0.7740 0.6308
vn 0.0232 0.1544 0.9877
vn 0.2517 -0.1426 0.9572
vn 0.3385 0.6258 0.7027
vn -0.0649 -0.7622 0.6441
vn -0.0241 -0.7892 0.6137
vn -0.0488 -0.9980 -0.0390
vn -0.0850 -0.9956 -0.0403
vn -0.2254 -0.7349 -0.6396
vn -0.4322 -0.9005 0.0482
vn -0.3956 -0.9172 -0.0475
vn -0.2813 -0.4697 -0.8369
vn -0.0041 0.1832 0.9831
vn -0.0109 0.1567 0.9876
vn -0.0012 0.7588 0.6514
vn 0.0096 -0.9024 0.4307
vn 0.0218 -0.9987 -0.0465
vn -0.0568 -0.9967 0.0585
vn 0.0439 0.8058 0.5906
vn 0.0629 0.9980 -0.0106
vn 0.0392 0.9989 0.0240
vn 0.0421 0.7722 0.6340
vn -0.4009 -0.6500 -0.6455
vn 0.0184 0.3326 -0.9429
vn -0.0242 0.4250 -0.9049
vn -0.0401 -0.2535 0.9665
vn 0.4012 -0.6110 0.6825
vn -0.1326 -0.9910 -0.0182
vn 0.5911 -0.8066 -0.0067
vn 0.0251 -0.8296 0.5578
vn -0.0046 -0.9988 -0.0489
vn -0.0571 -0.8415 0.5372
vn 0.0004 -0.4662 0.8847
vn -0.0073 0.7675 0.6410
vn -0.0063 0.9999 0.0147
vn -0.0074 0.9994 0.0329
vn 0.0253 0.7923 -0.6097
vn 0.1063 0.3315 -0.9374
vn 0.0276 0.8522 -0.5224
vn -0.0287 -0.1935 0.9807
vn -0.0075 -0.8006 0.5991
vn -0.0047 -0.3472 0.9378
vn 0.7828 0.0857 0.6164
vn 0.8889 0.1005 -0.4469
vn 0.6187 0.7856 -0.0117
vn -0.0783 -0.7303 -0.6787
vn 0.3856 -0.5898 -0.7096
vn -0.0168 0.9993 0.0348
vn 0.0071 0.8210 -0.5709
vn -0.0013 0.9997 0.0251
vn 0.0151 -0.7547 -0.6558
vn -0.0454 -0.2046 -0.9778
vn -0.0297 -0.2323 -0.9722
vn -0.0181 -0.7725 -0.6347
vn -0.0562 -0.7728 0.6322
vn -0.0955 -0.0034 0.9954
vn -0.3189 -0.5395 0.7792
vn -0.0076 0.2636 -0.9646
vn 0.0460 0.8023 -0.5951
vn 0.0141 0.7194 0.6945
vn 0.0250 0.9980 0.0580
vn -0.6903 0.6972 -0.1931
vn -0.5258 -0.1508 -0.8371
vn -0.0240 0.3435 0.9389
vn -0.0095 0.7876 0.6161
vn -0.0058 0.2913 0.9566
vn 0.0441 0.3151 0.9480
vn 0.0072 0.7926 0.6097
vn 0.0114 -0.2053 0.9786
vn -0.0246 0.7980 -0.6022
vn -0.0327 0.8483 -0.5285
vn -0.0157 0.8075 -0.5896
vn -0.0079 0.7723 0.6353
vn 0.3243 0.6267 -0.7086
vn -0.0044 -0.7993 0.6009
vn -0.0487 -0.9964 0.0691
vn 0.0247 -0.8966 -0.4422
vn -0.0005 -0.8710 0.4912
vn -0.0125 0.8158 -0.5782
vn -0.0147 0.9998 0.0103
vn -0.0247 -0.7444 -0.6672
vn 0.0205 0.7953 -0.6059
vn 0.0858 0.7643 -0.6391
vn 0.0238 0.9994 0.0267
vn -0.0180 0.3134 -0.9494
vn -0.0368 -0.6628 -0.7479
vn 0.0106 -0.9985 -0.0538
vn -0.1054 -0.8676 0.4860
vn 0.0177 -0.7307 0.6825
vn -0.0937 -0.8465 -0.5241
vn -0.0069 0.7386 0.6741
vn 0.0015 1.0000 0.0043
vn 0.0727 -0.8665 0.4939
vn -0.0007 -0.7542 0.6566
vn 0.0810 0.8043 0.5886
vn 0.0110 0.7658 0.6430
vn 0.0273 0.9994 0.0203
vn 0.0154 0.9996 0.0250
vn -0.0498 -0.1469 -0.9879
vn -0.0461 0.3806 -0.9236
vn -0.0038 0.2055 -0.9787
vn 0.0014 -0.3338 -0.9427
vn 0.0124 0.9993 0.0353
vn 0.0358 -0.2601 0.9649
vn -0.0517 0.1545 0.9866
vn 0.0359 -0.4168 0.9083
vn -0.0284 -0.2574 0.9659
vn 0.0593 -0.7957 0.6028
vn 0.0193 -0.3121 0.9499
vn 0.0209 0.1499 0.9885
vn -0.1244 0.0570 0.9906
vn -0.3410 -0.7390 0.5811
vn 0.1311 0.3745 0.9179
vn -0.0319 0.7521 0.6582
vn -0.0996 0.2786 0.9552
vn 0.0224 -0.3521 0.9357
vn 0.0176 -0.8268 0.5623
vn 0.0163 -0.9985 -0.0526
vn -0.3701 -0.9279 0.0448
vn -0.0407 0.2363 0.9708
vn 0.0163 -0.7685 -0.6396
vn 0.0175 -0.2844 -0.9585
vn -0.1380 0.7633 0.6311
vn -0.0125 0.1648 0.9862
vn -0.0414 -0.3266 0.9443
vn 0.2015 -0.0511 -0.9781
vn 0.1092 0.3351 -0.9359
vn 0.0588 -0.2408 -0.9688
vn 0.0072 0.3760 0.9266
vn -0.0048 0.7845 0.6201
vn -0.0336 0.9989 0.0315
vn 0.0366 -0.7476 -0.6631
vn -0.2796 -0.9566 -0.0825
vn 0.0497 -0.9970 -0.0594
vn 0.0444 -0.9983 -0.0377
vn 0.0636 -0.9920 -0.1093
vn -0.0109 -0.4683 -0.8835
vn 0.0186 -0.1527 -0.9881
vn -0.0236 0.7641 0.6447
vn 0.0109 0.0041 0.9999
vn -0.0225 0.1278 -0.9915
vn -0.0195 0.9998 0.0067
vn 0.0439 0.3574 0.9329
vn 0.0071 -0.2823 -0.9593
vn -0.0277 0.2937 0.9555
vn 0.0081 0.1132 -0.9935
vn 0.0720 -0.8192 -0.5690
vn 0.0190 -0.8595 -0.5108
vn -0.0183 -0.9991 -0.0376
vn -0.0034 -0.9988 -0.0492
vn -0.0439 0.3850 -0.9219
vn -0.1118 0.0852 -0.9901
vn -0.0280 0.6387 -0.7689
usemtl tree_debris_01
s 1
f 24/1/1 99/2/2 57/3/3 23/4/4
f 85/5/5 8/6/6 4/7/7
f 6/8/8 164/9/9 15/10/10
f 41/11/11 131/12/12 111/13/13 148/14/14
f 122/15/15 9/16/16 165/17/17
f 91/18/18 122/15/15 118/19/19 90/20/20
f 43/21/21 25/22/22 102/23/23 51/24/24
f 13/25/25 87/26/26 54/27/27 152/28/28
f 75/29/29 88/30/30 20/31/31 19/32/32
f 156/33/33 169/34/34 16/35/35
f 168/36/36 82/37/37 113/38/38
f 136/39/39 42/40/40 150/41/41 115/42/42
f 76/43/43 21/44/44 19/32/32
f 8/6/6 85/5/5 22/45/45
f 84/46/46 13/25/25 102/23/23
f 11/47/47 18/48/48 26/49/49
f 104/50/50 151/51/51 61/52/52 17/53/53
f 33/54/54 29/55/55 28/56/56
f 64/57/57 32/58/58 74/59/59
f 95/60/60 159/61/61 35/62/62
f 52/63/63 63/64/64 157/65/65 51/24/24
f 89/66/66 96/67/67 18/48/48
f 40/68/68 3/69/69 145/70/70
f 41/11/11 148/14/14 74/59/59
f 42/40/40 43/21/21 157/65/65
f 163/71/71 10/72/72 154/73/73 101/74/74
f 134/75/75 129/76/76 44/77/77
f 142/78/78 91/18/18 90/20/20 7/79/79
f 37/80/80 36/81/81 112/82/82 6/8/8
f 112/82/82 21/44/44 59/83/83
f 33/54/54 34/84/84 161/85/85
f 161/85/85 29/55/55 33/54/54
f 151/51/51 23/4/4 57/3/3
f 94/86/86 121/87/87 167/88/88
f 48/89/89 35/62/62 87/26/26
f 29/55/55 170/90/90 28/56/56
f 22/45/45 155/91/91 110/92/92 8/6/6
f 40/68/68 145/70/70 49/93/93
f 157/65/65 63/64/64 50/94/94
f 81/95/95 126/96/96 107/97/97 127/98/98
f 165/17/17 27/99/99 53/100/100
f 157/65/65 7/79/79 42/40/40
f 54/27/27 133/101/101 152/28/28
f 130/102/102 73/103/103 36/81/81 47/104/104
f 130/102/102 149/105/105 24/1/1
f 57/3/3 58/106/106 56/107/107
f 76/43/43 59/83/83 21/44/44
f 158/108/108 128/109/109 113/38/38 83/110/110
f 45/111/111 156/33/33 16/35/35 138/112/112
f 143/113/113 62/114/114 56/107/107
f 79/115/115 166/116/116 66/117/117
f 115/42/42 150/41/41 105/118/118 167/88/88
f 32/58/58 71/119/119 70/120/120
f 98/121/121 65/122/122 32/58/58
f 74/59/59 32/58/58 70/120/120
f 74/59/59 70/120/120 41/11/11
f 123/123/123 66/117/117 64/57/57 74/59/59
f 164/9/9 59/83/83 76/43/43
f 120/124/124 128/109/109 77/125/125
f 128/109/109 119/126/126 168/36/36
f 128/109/109 78/127/127 77/125/125
f 124/128/128 128/109/109 158/108/108
f 1/129/129 95/60/60 34/84/84
f 12/130/130 1/129/129 34/84/84
f 84/46/46 48/89/89 87/26/26 13/25/25
f 46/131/131 80/132/132 44/77/77
f 79/115/115 67/133/133 12/130/130 166/116/116
f 97/134/134 78/127/127 117/135/135
f 81/95/95 162/136/136 171/137/137
f 81/95/95 171/137/137 153/138/138
f 158/108/108 83/110/110 135/139/139
f 94/86/86 48/89/89 121/87/87
f 6/8/8 15/10/10 100/140/140
f 69/141/141 65/122/122 116/142/142 107/97/97
f 109/143/143 77/125/125 78/127/127 97/134/134
f 129/76/76 134/75/75 104/50/50 17/53/53
f 133/101/101 89/66/66 152/28/28
f 91/18/18 89/66/66 133/101/101
f 123/123/123 74/59/59 148/14/14 97/134/134
f 94/86/86 35/62/62 48/89/89
f 18/48/48 96/67/67 26/49/49
f 63/64/64 26/49/49 96/67/67
f 11/47/47 52/63/63 51/24/24 102/23/23
f 109/143/143 97/134/134 148/14/14
f 62/114/114 38/144/144 137/145/145
f 91/18/18 14/146/146 89/66/66
f 72/147/147 19/32/32 21/44/44
f 86/148/148 58/106/106 149/105/105
f 146/149/149 77/125/125 109/143/143 173/150/150
f 25/22/22 84/46/46 102/23/23
f 155/91/91 103/151/151 110/92/92
f 71/119/119 65/122/122 69/141/141 68/152/152
f 164/9/9 76/43/43 60/153/153
f 117/135/135 78/127/127 162/136/136 67/133/133
f 83/110/110 68/152/152 106/154/154 135/139/139
f 104/50/50 134/75/75 55/155/155
f 124/128/128 135/139/139 106/154/154
f 127/98/98 107/97/97 139/156/156
f 101/74/74 92/157/157 93/158/158 133/101/101
f 2/159/159 108/160/160 146/149/149
f 109/143/143 148/14/14 173/150/150
f 165/17/17 105/118/118 118/19/19 122/15/15
f 125/161/161 8/6/6 110/92/92
f 111/13/13 110/92/92 147/162/162
f 103/151/151 40/68/68 2/159/159
f 40/68/68 103/151/151 155/91/91
f 128/109/109 108/160/160 119/126/126
f 159/61/61 1/129/129 127/98/98
f 43/21/21 42/40/40 136/39/39
f 114/163/163 43/21/21 136/39/39
f 114/163/163 84/46/46 25/22/22
f 20/31/31 44/77/77 80/132/132 60/153/153
f 78/127/127 128/109/109 124/128/128
f 76/43/43 19/32/32 20/31/31 60/153/153
f 164/9/9 60/153/153 80/132/132 15/10/10
f 71/119/119 31/164/164 131/12/12
f 143/113/113 119/126/126 38/144/144 62/114/114
f 67/133/133 162/136/136 12/130/130
f 23/4/4 55/155/155 75/29/29
f 170/90/90 64/57/57 66/117/117
f 3/69/69 149/105/105 130/102/102
f 4/7/7 31/164/164 83/110/110 113/38/38
f 146/149/149 120/124/124 77/125/125
f 108/160/160 120/124/124 146/149/149
f 119/126/126 108/160/160 5/165/165
f 79/115/115 123/123/123 97/134/134
f 130/102/102 140/166/166 72/147/147 73/103/103
f 14/146/146 91/18/18 142/78/78
f 71/119/119 131/12/12 41/11/11 70/120/120
f 116/142/142 65/122/122 98/121/121
f 172/167/167 85/5/5 132/168/168
f 44/77/77 20/31/31 88/30/30 134/75/75
f 124/128/128 106/154/154 171/137/137
f 8/6/6 125/161/161 4/7/7
f 81/95/95 127/98/98 1/129/129
f 65/122/122 71/119/119 32/58/58
f 57/3/3 56/107/107 62/114/114 151/51/51
f 34/84/84 94/86/86 161/85/85
f 107/97/97 116/142/142 163/71/71 139/156/156
f 80/132/132 46/131/131 100/140/140 15/10/10
f 151/51/51 62/114/114 61/52/52
f 62/114/114 137/145/145 61/52/52
f 159/61/61 95/60/60 1/129/129
f 93/158/158 91/18/18 133/101/101
f 93/158/158 122/15/15 91/18/18
f 55/155/155 88/30/30 75/29/29
f 55/155/155 134/75/75 88/30/30
f 87/26/26 35/62/62 159/61/61
f 122/15/15 93/158/158 9/16/16
f 116/142/142 10/72/72 163/71/71
f 78/127/127 124/128/128 171/137/137 162/136/136
f 115/42/42 121/87/87 114/163/163
f 95/60/60 35/62/62 94/86/86
f 95/60/60 94/86/86 34/84/84
f 101/74/74 133/101/101 160/169/169
f 139/156/156 163/71/71 39/170/170
f 152/28/28 89/66/66 18/48/48
f 9/16/16 10/72/72 30/171/171
f 9/16/16 30/171/171 170/90/90
f 69/141/141 153/138/138 106/154/154 68/152/152
f 40/68/68 155/91/91 3/69/69
f 49/93/93 145/70/70 138/112/112
f 2/159/159 146/149/149 173/150/150
f 173/150/150 103/151/151 2/159/159
f 49/93/93 5/165/165 2/159/159
f 131/12/12 125/161/161 110/92/92
f 131/12/12 31/164/164 125/161/161
f 31/164/164 4/7/7 125/161/161
f 96/67/67 14/146/146 50/94/94 63/64/64
f 167/88/88 121/87/87 115/42/42
f 172/167/167 82/37/37 56/107/107
f 143/113/113 56/107/107 82/37/37
f 128/109/109 120/124/124 108/160/160
f 28/56/56 170/90/90 66/117/117
f 166/116/116 28/56/56 66/117/117
f 68/152/152 83/110/110 31/164/164 71/119/119
f 119/126/126 143/113/113 168/36/36
f 143/113/113 82/37/37 168/36/36
f 169/34/34 38/144/144 49/93/93
f 36/81/81 73/103/103 112/82/82
f 149/105/105 58/106/106 99/2/2
f 42/40/40 7/79/79 150/41/41
f 30/171/171 98/121/121 170/90/90
f 30/171/171 116/142/142 98/121/121
f 16/35/35 169/34/34 49/93/93
f 111/13/13 131/12/12 110/92/92
f 138/112/112 130/102/102 47/104/104
f 138/112/112 47/104/104 45/111/111
f 7/79/79 90/20/20 118/19/19
f 7/79/79 118/19/19 150/41/41
f 49/93/93 38/144/144 5/165/165
f 129/76/76 156/33/33 45/111/111
f 171/137/137 106/154/154 153/138/138
f 34/84/84 33/54/54 166/116/116 12/130/130
f 66/117/117 123/123/123 79/115/115
f 157/65/65 43/21/21 51/24/24
f 124/128/128 158/108/108 135/139/139
f 114/163/163 25/22/22 43/21/21
f 140/166/166 141/172/172 72/147/147
f 92/157/157 154/73/73 93/158/158
f 154/73/73 92/157/157 101/74/74
f 37/80/80 100/140/140 46/131/131
f 22/45/45 149/105/105 144/173/173 155/91/91
f 132/168/168 4/7/7 82/37/37
f 82/37/37 4/7/7 113/38/38
f 75/29/29 140/166/166 23/4/4
f 22/45/45 86/148/148 149/105/105
f 147/162/162 103/151/151 173/150/150
f 147/162/162 110/92/92 103/151/151
f 169/34/34 137/145/145 38/144/144
f 17/53/53 169/34/34 156/33/33
f 162/136/136 1/129/129 12/130/130
f 162/136/136 81/95/95 1/129/129
f 130/102/102 138/112/112 3/69/69
f 164/9/9 6/8/8 112/82/82 59/83/83
f 37/80/80 46/131/131 129/76/76 45/111/111
f 157/65/65 50/94/94 7/79/79
f 27/99/99 170/90/90 29/55/55
f 27/99/99 9/16/16 170/90/90
f 98/121/121 32/58/58 64/57/57
f 167/88/88 105/118/118 53/100/100
f 105/118/118 165/17/17 53/100/100
f 33/54/54 28/56/56 166/116/116
f 127/98/98 139/156/156 159/61/61
f 130/102/102 24/1/1 140/166/166
f 101/74/74 160/169/169 39/170/170
f 39/170/170 160/169/169 159/61/61
f 6/8/8 100/140/140 37/80/80
f 48/89/89 84/46/46 114/163/163
f 114/163/163 121/87/87 48/89/89
f 165/17/17 9/16/16 27/99/99
f 148/14/14 147/162/162 173/150/150
f 38/144/144 119/126/126 5/165/165
f 145/70/70 3/69/69 138/112/112
f 85/5/5 4/7/7 132/168/168
f 144/173/173 149/105/105 3/69/69
f 11/47/47 102/23/23 13/25/25
f 13/25/25 18/48/48 11/47/47
f 152/28/28 18/48/48 13/25/25
f 85/5/5 86/148/148 22/45/45
f 140/166/166 24/1/1 23/4/4
f 47/104/104 36/81/81 37/80/80 45/111/111
f 161/85/85 94/86/86 167/88/88
f 172/167/167 132/168/168 82/37/37
f 93/158/158 154/73/73 9/16/16
f 172/167/167 86/148/148 85/5/5
f 44/77/77 129/76/76 46/131/131
f 167/88/88 53/100/100 161/85/85
f 3/69/69 155/91/91 144/173/173
f 99/2/2 58/106/106 57/3/3
f 115/42/42 114/163/163 136/39/39
f 7/79/79 50/94/94 14/146/146 142/78/78
f 141/172/172 19/32/32 72/147/147
f 58/106/106 86/148/148 172/167/167 56/107/107
f 98/121/121 64/57/57 170/90/90
f 69/141/141 107/97/97 126/96/96
f 153/138/138 69/141/141 126/96/96
f 126/96/96 81/95/95 153/138/138
f 49/93/93 2/159/159 40/68/68
f 148/14/14 111/13/13 147/162/162
f 17/53/53 137/145/145 169/34/34
f 17/53/53 61/52/52 137/145/145
f 10/72/72 9/16/16 154/73/73
f 73/103/103 21/44/44 112/82/82
f 72/147/147 21/44/44 73/103/103
f 49/93/93 138/112/112 16/35/35
f 161/85/85 53/100/100 29/55/55
f 53/100/100 27/99/99 29/55/55
f 113/38/38 128/109/109 168/36/36
f 55/155/155 23/4/4 151/51/51
f 151/51/51 104/50/50 55/155/155
f 163/71/71 101/74/74 39/170/170
f 139/156/156 39/170/170 159/61/61
f 149/105/105 99/2/2 24/1/1
f 10/72/72 116/142/142 30/171/171
f 159/61/61 160/169/169 87/26/26
f 160/169/169 54/27/27 87/26/26
f 11/47/47 26/49/49 63/64/64 52/63/63
f 19/32/32 141/172/172 75/29/29
f 141/172/172 140/166/166 75/29/29
f 17/53/53 156/33/33 129/76/76
f 5/165/165 108/160/160 2/159/159
f 160/169/169 133/101/101 54/27/27
f 150/41/41 118/19/19 105/118/118
f 89/66/66 14/146/146 96/67/67
f 79/115/115 97/134/134 117/135/135 67/133/133
